<svg xmlns="http://www.w3.org/2000/svg" viewBox="0 0 1024 1024" role="img" aria-labelledby="title desc">
  <title id="title">Convivia24 app icon</title>
  <desc id="desc">Cream and red Convivia24 monogram.</desc>
  <rect width="1024" height="1024" rx="232" fill="#f8f6f2"/>
  <circle cx="512" cy="512" r="392" fill="#fffdf8"/>
  <circle cx="512" cy="512" r="344" fill="none" stroke="#c9a84c" stroke-width="28"/>
  <path d="M320 560c0-128 83-222 207-222 74 0 135 31 171 88l-79 60c-21-31-52-48-91-48-64 0-109 49-109 122s45 122 109 122c39 0 70-17 91-48l79 60c-36 57-97 88-171 88-124 0-207-94-207-222Z" fill="#b91c1c"/>
  <path d="M456 580h112c26 0 42-13 42-34 0-22-16-34-44-34h-40v-78h38c24 0 38-12 38-31 0-20-15-31-39-31-31 0-54 18-67 51l-79-36c25-62 78-96 151-96 86 0 142 40 142 100 0 39-22 69-61 85 47 15 73 51 73 97 0 69-61 113-154 113H456v-106Z" fill="#0a0a0a" opacity=".9"/>
  <path d="M344 804h336" stroke="#c9a84c" stroke-width="22" stroke-linecap="round"/>
</svg>
