<svg xmlns="http://www.w3.org/2000/svg" viewBox="0 0 720 160" role="img" aria-labelledby="title desc">
  <title id="title">Convivia24</title>
  <desc id="desc">Convivia24 wordmark.</desc>
  <rect width="720" height="160" fill="none"/>
  <g transform="translate(20 20)">
    <rect width="120" height="120" rx="32" fill="#f8f6f2"/>
    <circle cx="60" cy="60" r="42" fill="none" stroke="#c9a84c" stroke-width="7"/>
    <path d="M38 66c0-24 16-42 39-42 14 0 25 6 32 17L94 53c-4-6-10-9-17-9-12 0-21 9-21 22s9 22 21 22c7 0 13-3 17-9l15 12c-7 11-18 17-32 17-23 0-39-18-39-42Z" fill="#b91c1c"/>
  </g>
  <text x="168" y="84" fill="#111111" font-family="Georgia, 'Times New Roman', serif" font-size="60" font-style="italic" font-weight="600" letter-spacing="-1">Convivia</text>
  <text x="462" y="84" fill="#b91c1c" font-family="Arial, Helvetica, sans-serif" font-size="54" font-weight="800" letter-spacing="-2">24</text>
  <text x="170" y="116" fill="#6b6258" font-family="Arial, Helvetica, sans-serif" font-size="18" font-weight="700" letter-spacing="4">HOSPITALITY STAFFING</text>
</svg>
